{"title":"Dr.Jekyll.&amp;.Mr.Hyde.1931.HQ.720p.x264.AC3.[FrOnkY]","uid":11971572,"size":2304613254,"categoryP":"video","categoryS":"hd___movies","magnet":"?xt=urn:btih:e6ca6b824502244b0237336803b41d6c748ce42b&amp;dn=Dr.Jekyll.%26amp%3B.Mr.Hyde.1931.HQ.720p.x264.AC3.%5BFrOnkY%5D&amp;tr=udp%3A%2F%2Ftracker.openbittorrent.com%3A80&amp;tr=udp%3A%2F%2Fopen.demonii.com%3A1337&amp;tr=udp%3A%2F%2Ftracker.coppersurfer.tk%3A6969&amp;tr=udp%3A%2F%2Fexodus.desync.com%3A6969","seeders":0,"leechers":0,"uploader":"HDmEntEs","files":1,"time":1432842967,"description":"Dr.Jekyll.&amp;.Mr.Hyde.1931.HQ.720p.x264.AC3.[FrOnkY].mkv\n\n\nFormat                                   : Matroska\nFormat version                           : Version 4 / Version 2\nFile size                                : 2.15 GiB\nDuration                                 : 1h 35mn\nOverall bit rate                         : 3 203 Kbps\nWriting application                      : mkvmerge v6.9.1 ('Blue Panther') 32bit\nWriting library                          : libebml v1.3.0 + libmatroska v1.4.1\nAttachements                             : Dr.Jekyll&amp;Mr.Hyde1.jpg / Dr.Jekyll&amp;Mr.Hyde2.jpg...\n\nVideo\nID                                       : 1\nFormat                                   : AVC\nFormat/Info                              : Advanced Video Codec\nFormat profile                           : High L4.1\nFormat settings, CABAC                   : Yes\nFormat settings, ReFrames                : 11 frames\nCodec ID                                 : V_MPEG4/ISO/AVC\nDuration                                 : 1h 35mn\nBit rate                                 : 3 003 Kbps\nWidth                                    : 964 pixels\nHeight                                   : 720 pixels\nDisplay aspect ratio                     : 4:3\nFrame rate mode                          : Constant\nFrame rate                               : 23.976 fps\nColor space                              : YUV\nChroma subsampling                       : 4:2:0\nBit depth                                : 8 bits\nScan type                                : Progressive\nBits/(Pixel*Frame)                       : 0.180\nStream size                              : 1.97 GiB (92%)\nWriting library                          : x264 core 142 r2491 24e4fed\nLanguage                                 : English\nDefault                                  : Yes\nForced                                   : No\n\nAudio\nID                                       : 2\nFormat                                   : AC-3\nFormat/Info                              : Audio Coding 3\nMode extension                           : CM (complete main)\nFormat settings, Endianness              : Big\nCodec ID                                 : A_AC3\nDuration                                 : 1h 35mn\nBit rate mode                            : Constant\nBit rate                                 : 192 Kbps\nChannel(s)                               : 1 channel\nChannel positions                        : Front: C\nSampling rate                            : 48.0 KHz\nBit depth                                : 16 bits\nStream size                              : 132 MiB (6%)\nLanguage                                 : English\nDefault                                  : Yes\nForced                                   : No\n\nText #1\nID                                       : 3\nFormat                                   : UTF-8\nCodec ID                                 : S_TEXT/UTF8\nCodec ID/Info                            : UTF-8 Plain Text\nLanguage                                 : Spanish\nDefault                                  : No\nForced                                   : No\n\nText #2\nID                                       : 4\nFormat                                   : UTF-8\nCodec ID                                 : S_TEXT/UTF8\nCodec ID/Info                            : UTF-8 Plain Text\nLanguage                                 : Spanish\nDefault                                  : No\nForced                                   : No\n\nText #3\nID                                       : 5\nFormat                                   : UTF-8\nCodec ID                                 : S_TEXT/UTF8\nCodec ID/Info                            : UTF-8 Plain Text\nLanguage                                 : English\nDefault                                  : No\nForced                                   : No\n\nText #4\nID                                       : 6\nFormat                                   : UTF-8\nCodec ID                                 : S_TEXT/UTF8\nCodec ID/Info                            : UTF-8 Plain Text\nLanguage                                 : French\nDefault                                  : No\nForced                                   : No\n\nText #5\nID                                       : 7\nFormat                                   : UTF-8\nCodec ID                                 : S_TEXT/UTF8\nCodec ID/Info                            : UTF-8 Plain Text\nLanguage                                 : Portuguese\nDefault                                  : No\nForced                                   : No\n\nMenu\n00:00:00.000                             : en:Chapter 01\n00:01:09.111                             : en:Chapter 02\n00:04:49.999                             : en:Chapter 03\n00:07:28.999                             : en:Chapter 04\n00:10:21.222                             : en:Chapter 05\n00:15:12.111                             : en:Chapter 06\n00:18:16.999                             : en:Chapter 07\n00:23:30.000                             : en:Chapter 08\n00:31:14.888                             : en:Chapter 09\n00:34:12.111                             : en:Chapter 10\n00:36:55.999                             : en:Chapter 11\n00:40:05.888                             : en:Chapter 12\n00:45:04.333                             : en:Chapter 13\n00:48:02.444                             : en:Chapter 14\n00:53:03.555                             : en:Chapter 15\n00:56:50.111                             : en:Chapter 16\n00:59:48.777                             : en:Chapter 17\n01:05:12.666                             : en:Chapter 18\n01:08:34.999                             : en:Chapter 19\n01:12:14.555                             : en:Chapter 20\n01:19:05.888                             : en:Chapter 21\n01:20:50.111                             : en:Chapter 22\n01:27:50.777                             : en:Chapter 23\n01:30:46.222                             : en:Chapter 24\n01:35:18.444                             : en:Chapter 25\n\n\nSD - HQ\n &lt;a href=&quot;\nhttp://i.imgur.com/hK2UEd5.png&quot; rel=&quot;nofollow&quot; target=&quot;_NEW&quot;&gt;\nhttp://i.imgur.com/hK2UEd5.png&lt;/a&gt; &lt;a href=&quot;\nhttp://i.imgur.com/ivvYN2f.png&quot; rel=&quot;nofollow&quot; target=&quot;_NEW&quot;&gt;\nhttp://i.imgur.com/ivvYN2f.png&lt;/a&gt;","torrent":{"xt":"urn:btih:e6ca6b824502244b0237336803b41d6c748ce42b","amp;dn":"Dr.Jekyll.%26amp%3B.Mr.Hyde.1931.HQ.720p.x264.AC3.%5BFrOnkY%5D","amp;tr":["udp%3A%2F%2Ftracker.openbittorrent.com%3A80","udp%3A%2F%2Fopen.demonii.com%3A1337","udp%3A%2F%2Ftracker.coppersurfer.tk%3A6969","udp%3A%2F%2Fexodus.desync.com%3A6969"],"infoHash":"e6ca6b824502244b0237336803b41d6c748ce42b","infoHashBuffer":{"type":"Buffer","data":[230,202,107,130,69,2,36,75,2,55,51,104,3,180,29,108,116,140,228,43]},"announce":[],"urlList":[]}}